<?xml version="1.0" encoding="UTF-8"?>
<svg xmlns="http://www.w3.org/2000/svg" viewBox="0 0 1024 1024" width="1024" height="1024">
  <defs>
    <radialGradient id="bg" cx="50%" cy="0%" r="120%">
      <stop offset="0%" stop-color="#1B3A57"></stop>
      <stop offset="55%" stop-color="#0E2740"></stop>
      <stop offset="100%" stop-color="#081A2C"></stop>
    </radialGradient>
    <linearGradient id="sheen" x1="0" y1="0" x2="0" y2="1">
      <stop offset="0%" stop-color="#FFFFFF" stop-opacity="0.16"></stop>
      <stop offset="35%" stop-color="#FFFFFF" stop-opacity="0"></stop>
    </linearGradient>
    <clipPath id="round">
      <rect width="1024" height="1024" rx="230" ry="230"></rect>
    </clipPath>
  </defs>

  <g clip-path="url(#round)">
    
    <rect width="1024" height="1024" fill="url(#bg)"></rect>

    
    <g fill="#FFFFFF" fill-opacity="0.06">
      <circle cx="120" cy="180" r="1.2"></circle>
      <circle cx="320" cy="120" r="1"></circle>
      <circle cx="640" cy="160" r="1.4"></circle>
      <circle cx="880" cy="240" r="1"></circle>
      <circle cx="200" cy="780" r="1.2"></circle>
      <circle cx="540" cy="860" r="1"></circle>
      <circle cx="820" cy="700" r="1.3"></circle>
    </g>

    
    <g transform="scale(5.12)" stroke-linecap="round" stroke-linejoin="round" fill="none">
      
      <line x1="22" y1="138" x2="178" y2="138" stroke="#F5F0E6" stroke-opacity="0.18" stroke-width="1"></line>

      
      <line x1="48" y1="138" x2="48" y2="64" stroke="#F5F0E6" stroke-width="2.4"></line>
      <line x1="152" y1="138" x2="152" y2="64" stroke="#F5F0E6" stroke-width="2.4"></line>

      
      <path d="M 48 64 Q 100 140 152 64" stroke="#F5F0E6" stroke-width="2.4"></path>

      
      <path d="M 48 64 Q 100 116 152 64" stroke="#587A72" stroke-width="1.4" stroke-opacity="0.85"></path>

      
      <line x1="66.72" y1="86.288" x2="66.72" y2="138" stroke="#F5F0E6" stroke-opacity="0.55" stroke-width="0.9"></line>
      <line x1="81.28" y1="98.736" x2="81.28" y2="138" stroke="#F5F0E6" stroke-opacity="0.55" stroke-width="0.9"></line>
      <line x1="95.84" y1="105.616" x2="95.84" y2="138" stroke="#F5F0E6" stroke-opacity="0.55" stroke-width="0.9"></line>
      <line x1="104.16" y1="105.616" x2="104.16" y2="138" stroke="#F5F0E6" stroke-opacity="0.55" stroke-width="0.9"></line>
      <line x1="118.72" y1="98.736" x2="118.72" y2="138" stroke="#F5F0E6" stroke-opacity="0.55" stroke-width="0.9"></line>
      <line x1="133.28" y1="86.288" x2="133.28" y2="138" stroke="#F5F0E6" stroke-opacity="0.55" stroke-width="0.9"></line>

      
      <rect x="44" y="136.5" width="112" height="3.2" rx="1.6" fill="#F5F0E6" stroke="none"></rect>

      
      <circle cx="100" cy="100" r="6.2" fill="#C99662" stroke="none"></circle>
      <circle cx="100" cy="100" r="6.2" fill="none" stroke="#F5F0E6" stroke-opacity="0.4" stroke-width="0.6"></circle>

      
      <circle cx="48" cy="64" r="3.4" fill="#F5F0E6" stroke="none"></circle>
      <circle cx="152" cy="64" r="3.4" fill="#F5F0E6" stroke="none"></circle>
    </g>

    
    <rect width="1024" height="410" fill="url(#sheen)"></rect>
  </g>
</svg>